HIERARCHY
ROOT hips
{
  OFFSET 0 10.6860622 2.3727825e-15
  CHANNELS 6 Xposition Yposition Zposition Yrotation Xrotation Zrotation
  JOINT leftUpperLeg
  {
    OFFSET 0.6642549969 -0.9402397400000004 0
    CHANNELS 3 Yrotation Xrotation Zrotation
    JOINT leftLowerLeg
    {
      OFFSET 0 -3.997221335632195 0
      CHANNELS 3 Yrotation Xrotation Zrotation
      JOINT leftFoot
      {
        OFFSET -0.13777839790000004 -4.6145792000000005 -0.22186036399999998
        CHANNELS 3 Yrotation Xrotation Zrotation
        JOINT leftToes
        {
          OFFSET -0.03777410834999995 -0.9130806927000008 0.85230013
          CHANNELS 3 Yrotation Xrotation Zrotation
          End Site
          {
            OFFSET -0.03777410834999995 -0.9130806927000008 0.85230013
          }
        }
      }
    }
  }
  JOINT rightUpperLeg
  {
    OFFSET -0.6642778626 -0.9402397400000004 0
    CHANNELS 3 Yrotation Xrotation Zrotation
    JOINT rightLowerLeg
    {
      OFFSET 0 -3.997221452859387 0
      CHANNELS 3 Yrotation Xrotation Zrotation
      JOINT rightFoot
      {
        OFFSET 0.1377926176 -4.6145792000000005 -0.22185782299999995
        CHANNELS 3 Yrotation Xrotation Zrotation
        JOINT rightToes
        {
          OFFSET 0.037780746850000047 -0.9130806927000008 0.85230167
          CHANNELS 3 Yrotation Xrotation Zrotation
          End Site
          {
            OFFSET 0.037780746850000047 -0.9130806927000008 0.85230167
          }
        }
      }
    }
  }
  JOINT spine
  {
    OFFSET 0 0.13988381660000015 0
    CHANNELS 3 Yrotation Xrotation Zrotation
    JOINT chest
    {
      OFFSET 0 0.6191039003973773 0
      CHANNELS 3 Yrotation Xrotation Zrotation
      JOINT upperChest
      {
        OFFSET 0 0.9855186130586943 0
        CHANNELS 3 Yrotation Xrotation Zrotation
        JOINT leftShoulder
        {
          OFFSET 0.1807663869 1.5087829790000005 0
          CHANNELS 3 Yrotation Xrotation Zrotation
          JOINT leftUpperArm
          {
            OFFSET 0.5985063006419806 0 0
            CHANNELS 3 Yrotation Xrotation Zrotation
            JOINT leftLowerArm
            {
              OFFSET 2.2993332369501065 0 0
              CHANNELS 3 Yrotation Xrotation Zrotation
              JOINT leftHand
              {
                OFFSET 2.395047042602395 0 0
                CHANNELS 3 Yrotation Xrotation Zrotation
                JOINT leftIndexProximal
                {
                  OFFSET 0.5766295810000004 0.04556643899499946 0.17265095988184
                  CHANNELS 3 Yrotation Xrotation Zrotation
                  JOINT leftIndexIntermediate
                  {
                    OFFSET 0.2957229000000008 -0.019352197700001517 -0.007932640616999987
                    CHANNELS 3 Yrotation Xrotation Zrotation
                    JOINT leftIndexDistal
                    {
                      OFFSET 0.19008243099999922 -0.012484908149998475 -0.002786250786000012
                      CHANNELS 3 Yrotation Xrotation Zrotation
                      End Site
                      {
                        OFFSET 0.19008243099999922 -0.012484908149998475 -0.002786250786000012
                      }
                    }
                  }
                }
                JOINT leftMiddleProximal
                {
                  OFFSET 0.5834975091000001 0.0524350405149987 0.02204081888183999
                  CHANNELS 3 Yrotation Xrotation Zrotation
                  JOINT leftMiddleIntermediate
                  {
                    OFFSET 0.33880573540000003 -0.019871473270000717 -0.00000971183179999946
                    CHANNELS 3 Yrotation Xrotation Zrotation
                    JOINT leftMiddleDistal
                    {
                      OFFSET 0.20676022730000088 -0.012221336379999448 0.0001471936708000235
                      CHANNELS 3 Yrotation Xrotation Zrotation
                      End Site
                      {
                        OFFSET 0.20676022730000088 -0.012221336379999448 0.0001471936708000235
                      }
                    }
                  }
                }
                JOINT leftLittleProximal
                {
                  OFFSET 0.5344154683999995 -0.012880921405001189 -0.24414037221816004
                  CHANNELS 3 Yrotation Xrotation Zrotation
                  JOINT leftLittleIntermediate
                  {
                    OFFSET 0.21758961730000093 -0.011650919939999227 0.011893592810000034
                    CHANNELS 3 Yrotation Xrotation Zrotation
                    JOINT leftLittleDistal
                    {
                      OFFSET 0.1475273964999999 -0.008152365682999818 0.006001092492999946
                      CHANNELS 3 Yrotation Xrotation Zrotation
                      End Site
                      {
                        OFFSET 0.1475273964999999 -0.008152365682999818 0.006001092492999946
                      }
                    }
                  }
                }
                JOINT leftRingProximal
                {
                  OFFSET 0.5799399463000003 0.026911854694997794 -0.12150566991816003
                  CHANNELS 3 Yrotation Xrotation Zrotation
                  JOINT leftRingIntermediate
                  {
                    OFFSET 0.26167887460000006 -0.013480186499999602 0.010996293000000053
                    CHANNELS 3 Yrotation Xrotation Zrotation
                    JOINT leftRingDistal
                    {
                      OFFSET 0.17667108799999987 -0.008990287899999228 0.0055541023999999065
                      CHANNELS 3 Yrotation Xrotation Zrotation
                      End Site
                      {
                        OFFSET 0.17667108799999987 -0.008990287899999228 0.0055541023999999065
                      }
                    }
                  }
                }
                JOINT leftThumbProximal
                {
                  OFFSET 0.11018806699999972 -0.09448718900500053 0.17047963138184
                  CHANNELS 3 Yrotation Xrotation Zrotation
                  JOINT leftThumbIntermediate
                  {
                    OFFSET 0.31062601459999983 -0.08126270900000132 0.15443142000000007
                    CHANNELS 3 Yrotation Xrotation Zrotation
                    JOINT leftThumbDistal
                    {
                      OFFSET 0.21627175790000086 -0.08833193599999878 0.018771167799999988
                      CHANNELS 3 Yrotation Xrotation Zrotation
                      End Site
                      {
                        OFFSET 0.21627175790000086 -0.08833193599999878 0.018771167799999988
                      }
                    }
                  }
                }
              }
            }
          }
        }
        JOINT neck
        {
          OFFSET 0 1.5463305265074576 0
          CHANNELS 3 Yrotation Xrotation Zrotation
          JOINT head
          {
            OFFSET 0 0.8456443600000344 0
            CHANNELS 3 Yrotation Xrotation Zrotation
            JOINT leftEye
            {
              OFFSET 0.30408573140000006 0.5104519199999995 0.1276382305
              CHANNELS 3 Yrotation Xrotation Zrotation
              End Site
              {
                OFFSET 0.30408573140000006 0.5104519199999995 0.1276382305
              }
            }
            JOINT rightEye
            {
              OFFSET -0.30409491089999996 0.5104519199999995 0.1276379445
              CHANNELS 3 Yrotation Xrotation Zrotation
              End Site
              {
                OFFSET -0.30409491089999996 0.5104519199999995 0.1276379445
              }
            }
            JOINT jaw
            {
              OFFSET -3.155239131000001e-7 -0.11984121820000082 0.60178107
              CHANNELS 3 Yrotation Xrotation Zrotation
              End Site
              {
                OFFSET -3.155239131000001e-7 -0.11984121820000082 0.60178107
              }
            }
          }
        }
        JOINT rightShoulder
        {
          OFFSET -0.1807303465 1.5087829790000005 0
          CHANNELS 3 Yrotation Xrotation Zrotation
          JOINT rightUpperArm
          {
            OFFSET -0.5985063796536958 0 0
            CHANNELS 3 Yrotation Xrotation Zrotation
            JOINT rightLowerArm
            {
              OFFSET -2.2993322059002854 0 0
              CHANNELS 3 Yrotation Xrotation Zrotation
              JOINT rightHand
              {
                OFFSET -2.395045314457259 0 0
                CHANNELS 3 Yrotation Xrotation Zrotation
                JOINT rightIndexProximal
                {
                  OFFSET -0.5764487688300002 0.0441371204405987 0.17361932004999997
                  CHANNELS 3 Yrotation Xrotation Zrotation
                  JOINT rightIndexIntermediate
                  {
                    OFFSET -0.29573011380000047 -0.01934826376999843 -0.007698921482999974
                    CHANNELS 3 Yrotation Xrotation Zrotation
                    JOINT rightIndexDistal
                    {
                      OFFSET -0.19008373999999884 -0.012503266380000655 -0.0026365778999999897
                      CHANNELS 3 Yrotation Xrotation Zrotation
                      End Site
                      {
                        OFFSET -0.19008373999999884 -0.012503266380000655 -0.0026365778999999897
                      }
                    }
                  }
                }
                JOINT rightMiddleProximal
                {
                  OFFSET -0.5834852037300005 0.05211639405060153 0.02307162440000001
                  CHANNELS 3 Yrotation Xrotation Zrotation
                  JOINT rightMiddleIntermediate
                  {
                    OFFSET -0.33880114510000003 -0.019952774050000954 0.0002455003561999819
                    CHANNELS 3 Yrotation Xrotation Zrotation
                    JOINT rightMiddleDistal
                    {
                      OFFSET -0.20675694929999955 -0.012273788999999091 0.00030209124000002766
                      CHANNELS 3 Yrotation Xrotation Zrotation
                      End Site
                      {
                        OFFSET -0.20675694929999955 -0.012273788999999091 0.00030209124000002766
                      }
                    }
                  }
                }
                JOINT rightLittleProximal
                {
                  OFFSET -0.5346811737299992 -0.011214256288399227 -0.24363941305000003
                  CHANNELS 3 Yrotation Xrotation Zrotation
                  JOINT rightLittleIntermediate
                  {
                    OFFSET -0.21757715980000092 -0.011771559690000988 0.01201554387
                    CHANNELS 3 Yrotation Xrotation Zrotation
                    JOINT rightLittleDistal
                    {
                      OFFSET -0.1475201849000004 -0.00822055339600003 0.006082065407000015
                      CHANNELS 3 Yrotation Xrotation Zrotation
                      End Site
                      {
                        OFFSET -0.1475201849000004 -0.00822055339600003 0.006082065407000015
                      }
                    }
                  }
                }
                JOINT rightRingProximal
                {
                  OFFSET -0.5800810755299999 0.027657985680600072 -0.12066365025000003
                  CHANNELS 3 Yrotation Xrotation Zrotation
                  JOINT rightRingIntermediate
                  {
                    OFFSET -0.26166445029999974 -0.013623118409999302 0.011164098990000045
                    CHANNELS 3 Yrotation Xrotation Zrotation
                    JOINT rightRingDistal
                    {
                      OFFSET -0.17666387530000027 -0.009072900100000503 0.005668185599999959
                      CHANNELS 3 Yrotation Xrotation Zrotation
                      End Site
                      {
                        OFFSET -0.17666387530000027 -0.009072900100000503 0.005668185599999959
                      }
                    }
                  }
                }
                JOINT rightThumbProximal
                {
                  OFFSET -0.10997596379000074 -0.09577489355940072 0.16989765924999997
                  CHANNELS 3 Yrotation Xrotation Zrotation
                  JOINT rightThumbIntermediate
                  {
                    OFFSET -0.31036620999999986 -0.08229339117999834 0.15440884469999996
                    CHANNELS 3 Yrotation Xrotation Zrotation
                    JOINT rightThumbDistal
                    {
                      OFFSET -0.21631306399999906 -0.08825326400000111 0.018656797720000014
                      CHANNELS 3 Yrotation Xrotation Zrotation
                      End Site
                      {
                        OFFSET -0.21631306399999906 -0.08825326400000111 0.018656797720000014
                      }
                    }
                  }
                }
              }
            }
          }
        }
      }
    }
  }
}
MOTION
Frames: 7
Frame Time: 0.03333333333333333
0 11.682712981546562 0 0 0 0 0 0 -5.826343164929014 -0.3712483961610101 -3.6333298826370974 5.838118207697276 0 0 0 0 0 0 0 0 5.826343164929014 0.3712483961610101 -3.6333298826370974 -5.838118207697276 0 0 0 0 0 0 0 -4.610651315171937 0 0 3.0831277533083026 0 0 0 0 0 1.5275236235667615 0 0 0 0 0 0 0 0 0 0 0 0 0 0 0 0 0 0 0 0 0 0 0 0 0 0 0 0 0 0 0 0 0 0 0 0 0 0 0 0 0 0 0 0 0 0 0 0 0 0 0 0 0 0 0 0 1.5275236235667615 0 0 0 0 0 0 0 0 0 0 0 0 0 0 1.5275236235667615 0 0 0 0 0 0 0 0 0 0 0 0 0 0 0 0 0 0 0 0 0 0 0 0 0 0 0 0 0 0 0 0 0 0 0 0 0 0 0 0 0 0 0 0 0 0 0 0 0 0 0 0 0 0 0
0.11528199550955653 -0.21041470964307968 3.0578403840298822 0 29.998716427839383 0 -1.8263757679322115 -57.402688748447474 11.70055930706395 4.923381601524547 27.08251448185125 3.4254768345594537 20.467157421573045 10.415840491008707 3.496392751413869 0 0 0 6.674929735872502 -56.15506474333163 -16.27700390857992 -4.714588737305949 25.660658069226898 -3.2402117824511305 -22.613365004652106 12.63167728383931 -2.1964671348798768 0 0 0 -0.4464518868394084 5.115263946069952 0.2366798672763403 -1.9670811976508225 -12.994629887652355 1.9336369172442682 0 0 0 -20.120088072002424 26.579024359098725 -30.764887956627447 42.85219978893115 -62.50774208735939 -78.8956359632378 1.8424599732301092 -15.37572496431283 -86.87670391190932 133.67982009350868 42.690240993701636 164.75159982544312 0 0 0 0 0 0 0 0 0 0 0 0 0 0 0 0 0 0 0 0 0 0 0 0 0 0 0 0 0 0 0 0 0 0 0 0 0 0 0 0 0 0 0 0 0 0 1.753087574149912 0 0 0.21506899470983923 0 0 0 0 0 0 0 0 0 0 18.972456412360167 25.116206578569017 29.27023952948933 -42.848449465089914 -62.615213136813786 78.72547650478653 -1.8876194788391973 -15.549403932644456 86.50652980612064 -140.5162477767956 41.63613185530514 -165.68637187275112 0 0 0 0 0 0 0 0 0 0 0 0 0 0 0 0 0 0 0 0 0 0 0 0 0 0 0 0 0 0 0 0 0 0 0 0 0 0 0 0 0 0 0 0 0
0.11528199550955653 -0.21041470964307968 3.1166915625359795 0 29.00211745073571 0 0.2375811429677972 -56.365835681302514 10.606504164119688 4.923381601524547 27.08251448185125 3.4254768345594537 19.248440020545864 9.893117246350009 3.5041356950769993 0 0 0 4.268570365881278 -55.23788625810472 -14.888888928137284 -4.714588737305949 25.660658069226898 -3.2402117824511305 -21.253624689260356 12.082183827496998 -2.2078469212559524 0 0 0 -0.44670570760992656 5.448475774601288 0.23402811183831504 -1.9563836458677 -11.561493958092564 1.8833445275775207 0 0 0 -20.120089864811952 26.57902626842753 -30.764889597263135 42.85220521242685 -62.507734689435964 -78.89564918461026 1.8424599732301092 -15.37572496431283 -86.87670391190932 133.92559451294306 42.71480100107977 165.51882144727665 0 0 0 0 0 0 0 0 0 0 0 0 0 0 0 0 0 0 0 0 0 0 0 0 0 0 0 0 0 0 0 0 0 0 0 0 0 0 0 0 0 0 0 0 0 0 1.8327197199183365 0 0 0.2907249945368108 0 0 0 0 0 0 0 0 0 0 18.972456412360167 25.116206578569017 29.27023952948933 -42.848449465089914 -62.615213136813786 78.72547650478653 -1.8876201310391518 -15.549389753297756 86.50653311809275 -140.7530503156341 41.65106647159603 -166.44297019025652 0 0 0 0 0 0 0 0 0 0 0 0 0 0 0 0 0 0 0 0 0 0 0 0 0 0 0 0 0 0 0 0 0 0 0 0 0 0 0 0 0 0 0 0 0
0.11528199550955653 -0.21041470964307968 3.175542472649805 0 28.004297965767492 0 2.2181479238305304 -55.30492450873931 9.604548580194518 4.923381601524547 27.08251448185125 3.4254768345594537 18.028882601130807 9.369539653271962 3.5231844590616173 0 0 0 1.9483138304604388 -54.286127903350035 -13.595470301864047 -4.714588737305949 25.660658069226898 -3.2402117824511305 -19.892876865121515 11.531642973664782 -2.2325909603302025 0 0 0 -0.44697396497905606 5.781731378698602 0.23137311542458952 -1.9469926316636343 -10.12470803735582 1.8334399058054833 0 0 0 -20.120088072002424 26.579024359098725 -30.764889597263135 42.85220250067913 -62.50774208735939 -78.8956393979281 1.8424530037871907 -15.37572496431283 -86.87670391190932 134.17199985698127 42.73696214271837 166.28683562132014 0 0 0 0 0 0 0 0 0 0 0 0 0 0 0 0 0 0 0 0 0 0 0 0 0 0 0 0 0 0 0 0 0 0 0 0 0 0 0 0 0 0 0 0 0 0 1.9123587174701366 0 0 0.3663869975539457 0 0 0 0 0 0 0 0 0 0 18.972458195768336 25.116208464426453 29.270241174566788 -42.84846248242577 -62.61522056151385 78.72549216217145 -1.8876194788391973 -15.549403932644456 86.50652980612064 -140.99027343626017 41.663659390736214 -167.20017329969608 0 0 0 0 0 0 0 0 0 0 0 0 0 0 0 0 0 0 0 0 0 0 0 0 0 0 0 0 0 0 0 0 0 0 0 0 0 0 0 0 0 0 0 0 0
0.11528199550955653 -0.21041470964307968 3.2343936511559024 0 27.005417189449375 0 4.120572175808986 -54.22234949597963 8.689426855999024 4.923381601524547 27.08251448185125 3.4254768345594537 16.808626523857765 8.84548279720881 3.5535495478017527 0 0 0 -0.2887794509511426 -53.30266205880224 -12.39374120617382 -4.7145892092988895 25.660659963608374 -3.240210836774621 -18.53131495012556 10.980547804405425 -2.2707027459221245 0 0 0 -0.44725861622562624 6.115027949946006 0.22871342158531927 -1.938889482897393 -8.684711912941724 1.783869118201021 0 0 0 -20.120089864811952 26.57902626842753 -30.764889597263135 42.852215275225674 -62.50774208735939 -78.89565955635524 1.8424599732301092 -15.37572496431283 -86.87670391190932 134.41898011041562 42.75669394274825 167.0555620647341 0 0 0 0 0 0 0 0 0 0 0 0 0 0 0 0 0 0 0 0 0 0 0 0 0 0 0 0 0 0 0 0 0 0 0 0 0 0 0 0 0 0 0 0 0 0 1.9920035469638961 0 0 0.44205500243682533 0 0 0 0 0 0 0 0 0 0 18.972456412360167 25.116206578569017 29.270241174566788 -42.848449465089914 -62.615213136813786 78.72547650478653 -1.8876201310391518 -15.549389753297756 86.50653311809275 -141.22782694257913 41.673927527823835 -167.95788223085887 0 0 0 0 0 0 0 0 0 0 0 0 0 0 0 0 0 0 0 0 0 0 0 0 0 0 0 0 0 0 0 0 0 0 0 0 0 0 0 0 0 0 0 0 0
0.11528199550955653 -0.21041470964307968 3.2932448296620005 0 26.005623915252038 0 5.949928836688945 -53.12033174092041 7.856027934799307 4.923380168455859 27.08251064618249 3.425476844678313 15.587771913188412 8.321327832550518 3.595219997053356 0 0 0 -2.4459931405352546 -52.29032798766006 -11.280352040641885 -4.714587953906032 25.660650491701297 -3.2402110954636085 -17.169116979501823 10.429389750978824 -2.3221661328772383 0 0 0 -0.4475598812200876 6.448353223685364 0.226050858478762 -1.9320593088625677 -7.241953418740421 1.7345850558171794 0 0 0 -20.12008496561711 26.579022449769955 -30.764884362685933 42.852178879142315 -62.50774208735939 -78.8956141849789 1.8424592020975588 -15.375739131775905 -86.87670084544006 134.66646860634708 42.77399873516553 167.82490349923546 0 0 0 0 0 0 0 0 0 0 0 0 0 0 0 0 0 0 0 0 0 0 0 0 0 0 0 0 0 0 0 0 0 0 0 0 0 0 0 0 0 0 0 0 0 0 2.071655644633991 0 0 0.5177280207066067 0 0 0 0 0 0 0 0 0 0 18.972451619308252 25.116204692711605 29.270236040309616 -42.84843139850492 -62.615213136813786 78.7254573910721 -1.8876178241465826 -15.549426974084922 86.50652450901906 -141.46565828275968 41.681842334563676 -168.71602175249376 0 0 0 0 0 0 0 0 0 0 0 0 0 0 0 0 0 0 0 0 0 0 0 0 0 0 0 0 0 0 0 0 0 0 0 0 0 0 0 0 0 0 0 0 0
0.11528199550955653 -0.21041470964307968 3.3520960081680977 0 25.00506311746347 0 7.711074793803508 -52.0009783765172 7.099449477178403 4.923380168455859 27.08251064618249 3.425476844678313 14.366451629169493 7.7974579471208365 3.6481802081864694 0 0 0 -4.526842113835197 -51.25183640423666 -10.251725518693847 -4.714587793320062 25.660659963608374 -3.2402110731937483 -15.806479649585127 9.878668593101017 -2.386944977862983 0 0 0 -0.4478757806639193 6.781712959021252 0.22338560643714625 -1.9264877208418296 -5.796884602050648 1.6855356188547965 0 0 0 -20.120088072002424 26.579024359098725 -30.764887956627447 42.85219978893115 -62.50774208735939 -78.8956359632378 1.8424599732301092 -15.37572496431283 -86.87670391190932 134.9143624637778 42.78884656538857 168.59476778133015 0 0 0 0 0 0 0 0 0 0 0 0 0 0 0 0 0 0 0 0 0 0 0 0 0 0 0 0 0 0 0 0 0 0 0 0 0 0 0 0 0 0 0 0 0 0 2.1513136703480735 0 0 0.5934069849890258 0 0 0 0 0 0 0 0 0 0 18.9724534027164 25.116204692711605 29.270237685387066 -42.848449465089914 -62.615213136813786 78.72547650478653 -1.8876194788391973 -15.549403932644456 86.50652980612064 -141.70370567869398 41.68742580808057 -169.4745042582683 0 0 0 0 0 0 0 0 0 0 0 0 0 0 0 0 0 0 0 0 0 0 0 0 0 0 0 0 0 0 0 0 0 0 0 0 0 0 0 0 0 0 0 0 0
